<svg xmlns="http://www.w3.org/2000/svg" width="1920" height="520" viewBox="0 0 1920 520">
  <defs>
    <linearGradient id="bg" x1="0" y1="0" x2="1" y2="1">
      <stop offset="0" stop-color="#e0f2fe"/>
      <stop offset="0.6" stop-color="#ffffff"/>
      <stop offset="1" stop-color="#fff1f2"/>
    </linearGradient>
    <linearGradient id="r" x1="0" y1="0" x2="1" y2="0">
      <stop offset="0" stop-color="#ef4444"/>
      <stop offset="1" stop-color="#f97316"/>
    </linearGradient>
  </defs>
  <rect width="1920" height="520" fill="url(#bg)"/>
  <g opacity="0.16" fill="#0f172a">
    <path d="M0 420h1920v100H0z"/>
    <path d="M160 240h280v180H160z"/>
    <path d="M480 210h220v210H480z"/>
    <path d="M740 250h260v170H740z"/>
    <path d="M1040 230h240v190H1040z"/>
    <path d="M1320 260h280v160H1320z"/>
    <path d="M1640 220h220v200H1640z"/>
  </g>
  <g transform="translate(1280 255)" opacity="0.95">
    <path d="M70 45h360c30 0 54 14 68 40l18 34H24l18-48c8-18 16-26 28-26z" fill="url(#r)"/>
    <path d="M50 92h460c18 0 32 14 32 32v38H18v-38c0-18 14-32 32-32z" fill="#111827"/>
    <circle cx="130" cy="180" r="34" fill="#0b1220"/>
    <circle cx="130" cy="180" r="18" fill="#94a3b8"/>
    <circle cx="380" cy="180" r="34" fill="#0b1220"/>
    <circle cx="380" cy="180" r="18" fill="#94a3b8"/>
  </g>
</svg>
