<svg xmlns="http://www.w3.org/2000/svg" width="1600" height="900" viewBox="0 0 1600 900">
  <defs>
    <linearGradient id="g" x1="0" y1="0" x2="1" y2="1">
      <stop offset="0" stop-color="#fff7ed"/>
      <stop offset="0.55" stop-color="#ffffff"/>
      <stop offset="1" stop-color="#e0f2fe"/>
    </linearGradient>
    <linearGradient id="p" x1="0" y1="0" x2="1" y2="0">
      <stop offset="0" stop-color="#ef4444"/>
      <stop offset="1" stop-color="#0ea5e9"/>
    </linearGradient>
  </defs>
  <rect width="1600" height="900" fill="url(#g)"/>
  <g opacity="0.16" fill="#0f172a">
    <path d="M0 740h1600v160H0z"/>
    <path d="M90 520h170v220H90z"/>
    <path d="M290 470h240v270H290z"/>
    <path d="M560 510h190v230H560z"/>
    <path d="M780 450h260v290H780z"/>
    <path d="M1070 500h210v240H1070z"/>
    <path d="M1310 470h200v270H1310z"/>
  </g>
  <g transform="translate(300 560)">
    <path d="M170 78h590c42 0 76 18 98 56l34 58H108l30-76c12-28 26-38 44-38z" fill="url(#p)" opacity="0.85"/>
    <path d="M140 138h720c28 0 50 22 50 50v42H90v-42c0-28 22-50 50-50z" fill="#111827" opacity="0.85"/>
    <rect x="240" y="92" width="230" height="56" rx="12" fill="#ffffff" opacity="0.25"/>
    <rect x="490" y="92" width="230" height="56" rx="12" fill="#ffffff" opacity="0.20"/>
    <circle cx="260" cy="250" r="46" fill="#0b1220"/>
    <circle cx="260" cy="250" r="26" fill="#94a3b8"/>
    <circle cx="740" cy="250" r="46" fill="#0b1220"/>
    <circle cx="740" cy="250" r="26" fill="#94a3b8"/>
    <path d="M120 232h860" stroke="#ffffff" opacity="0.16" stroke-width="8"/>
  </g>
</svg>
