<svg xmlns="http://www.w3.org/2000/svg" width="1600" height="900" viewBox="0 0 1600 900">
  <defs>
    <linearGradient id="g" x1="0" y1="0" x2="1" y2="1">
      <stop offset="0" stop-color="#f1f5f9"/>
      <stop offset="0.55" stop-color="#ffffff"/>
      <stop offset="1" stop-color="#fee2e2"/>
    </linearGradient>
    <linearGradient id="b" x1="0" y1="0" x2="1" y2="0">
      <stop offset="0" stop-color="#0ea5e9"/>
      <stop offset="1" stop-color="#22c55e"/>
    </linearGradient>
  </defs>
  <rect width="1600" height="900" fill="url(#g)"/>
  <g opacity="0.15" fill="#0f172a">
    <path d="M0 760h1600v140H0z"/>
    <path d="M120 520h220v240H120z"/>
    <path d="M380 470h180v290H380z"/>
    <path d="M600 510h240v250H600z"/>
    <path d="M880 480h160v280H880z"/>
    <path d="M1080 520h220v240H1080z"/>
    <path d="M1340 460h160v300H1340z"/>
  </g>
  <g transform="translate(340 560)">
    <path d="M160 70h540c44 0 80 20 104 60l30 52H110l28-72c12-28 28-40 50-40z" fill="url(#b)" opacity="0.85"/>
    <path d="M130 134h700c28 0 50 22 50 50v46H80v-46c0-28 22-50 50-50z" fill="#111827" opacity="0.85"/>
    <rect x="216" y="90" width="220" height="56" rx="12" fill="#ffffff" opacity="0.25"/>
    <rect x="456" y="90" width="220" height="56" rx="12" fill="#ffffff" opacity="0.22"/>
    <circle cx="240" cy="250" r="46" fill="#0b1220"/>
    <circle cx="240" cy="250" r="26" fill="#94a3b8"/>
    <circle cx="700" cy="250" r="46" fill="#0b1220"/>
    <circle cx="700" cy="250" r="26" fill="#94a3b8"/>
    <path d="M96 232h840" stroke="#ffffff" opacity="0.16" stroke-width="8"/>
  </g>
</svg>
