<svg xmlns="http://www.w3.org/2000/svg" width="1600" height="900" viewBox="0 0 1600 900">
  <defs>
    <linearGradient id="g" x1="0" y1="0" x2="1" y2="1">
      <stop offset="0" stop-color="#fff1f2"/>
      <stop offset="0.55" stop-color="#ffffff"/>
      <stop offset="1" stop-color="#eff6ff"/>
    </linearGradient>
    <linearGradient id="r" x1="0" y1="0" x2="1" y2="0">
      <stop offset="0" stop-color="#ef4444"/>
      <stop offset="1" stop-color="#f97316"/>
    </linearGradient>
  </defs>
  <rect width="1600" height="900" fill="url(#g)"/>
  <g opacity="0.18" fill="#0f172a">
    <path d="M0 720h1600v180H0z"/>
    <path d="M80 520h110v200H80z"/>
    <path d="M220 470h140v250H220z"/>
    <path d="M390 500h120v220H390z"/>
    <path d="M540 450h180v270H540z"/>
    <path d="M760 520h150v200H760z"/>
    <path d="M940 480h210v240H940z"/>
    <path d="M1180 510h170v210H1180z"/>
    <path d="M1380 460h160v260H1380z"/>
  </g>
  <g transform="translate(260 560)">
    <path d="M180 80h560c40 0 70 18 88 54l30 60H110l30-78c10-24 22-36 40-36z" fill="url(#r)" opacity="0.9"/>
    <path d="M160 140h700c28 0 50 22 50 50v40H110v-40c0-28 22-50 50-50z" fill="#111827" opacity="0.85"/>
    <rect x="230" y="92" width="210" height="56" rx="12" fill="#ffffff" opacity="0.35"/>
    <rect x="465" y="92" width="210" height="56" rx="12" fill="#ffffff" opacity="0.28"/>
    <circle cx="260" cy="250" r="46" fill="#0b1220"/>
    <circle cx="260" cy="250" r="26" fill="#94a3b8"/>
    <circle cx="720" cy="250" r="46" fill="#0b1220"/>
    <circle cx="720" cy="250" r="26" fill="#94a3b8"/>
    <path d="M120 230h840" stroke="#ffffff" opacity="0.18" stroke-width="8"/>
  </g>
</svg>
